<svg width="66" height="36" viewBox="0 0 66 36" fill="none" xmlns="http://www.w3.org/2000/svg">
<path d="M61.1546 12.4438L60.7424 13.3348V13.3348L61.1546 12.4438ZM64.4895 15.6819L65.3336 15.1807L65.3336 15.1807L64.4895 15.6819ZM63.5964 16.7623L63.8301 15.8088H63.8301L63.5964 16.7623ZM57.2833 16.7042L56.501 16.111L57.2833 16.7042ZM31.4176 33.5934L31.6196 32.6326L31.4176 33.5934ZM21.7454 28.2181L21.1266 28.9803L21.7454 28.2181ZM18.8252 21.3809C19.3674 21.3809 19.8069 20.9414 19.8069 20.3992C19.8069 19.857 19.3674 19.4175 18.8252 19.4175V21.3809ZM8.5725 19.4175C8.03031 19.4175 7.59078 19.857 7.59078 20.3992C7.59078 20.9414 8.03031 21.3809 8.5725 21.3809V19.4175ZM36.0547 13.383C36.5969 13.383 37.0365 12.9435 37.0365 12.4013C37.0365 11.8591 36.5969 11.4196 36.0547 11.4196V13.383ZM19.0379 11.4196C18.4957 11.4196 18.0561 11.8591 18.0561 12.4013C18.0561 12.9435 18.4957 13.383 19.0379 13.383V11.4196ZM39.2029 17.8074C39.745 17.8074 40.1846 17.3679 40.1846 16.8257C40.1846 16.2835 39.745 15.844 39.2029 15.844L39.2029 17.8074ZM22.186 15.844C21.6438 15.844 21.2043 16.2835 21.2043 16.8257C21.2043 17.3679 21.6438 17.8074 22.186 17.8074V15.844ZM22.8245 17.4452C23.1905 17.0452 23.1629 16.4242 22.7628 16.0582C22.3628 15.6923 21.7418 15.7199 21.3758 16.1199L22.8245 17.4452ZM18.4837 19.2814C18.1177 19.6814 18.1453 20.3024 18.5454 20.6684C18.9454 21.0343 19.5664 21.0067 19.9324 20.6067L18.4837 19.2814ZM23.9302 5.21493C24.4724 5.21493 24.9119 4.7754 24.9119 4.23321C24.9119 3.69101 24.4724 3.25148 23.9302 3.25148V5.21493ZM11.1676 3.25148C10.6254 3.25148 10.1858 3.69101 10.1858 4.2332C10.1858 4.7754 10.6254 5.21493 11.1676 5.21493V3.25148ZM27.1853 6.82522C26.6432 6.83665 26.213 7.28535 26.2245 7.82742C26.2359 8.36949 26.6846 8.79966 27.2267 8.78823L27.1853 6.82522ZM26.4809 8.51248C26.8468 8.91253 27.4678 8.94015 27.8679 8.57418C28.2679 8.20821 28.2955 7.58723 27.9296 7.18718L26.4809 8.51248ZM25.0374 4.02576C24.6715 3.62572 24.0505 3.59809 23.6504 3.96406C23.2504 4.33003 23.2228 4.95101 23.5887 5.35106L25.0374 4.02576ZM45.0272 13.7036L44.0771 13.9507L44.0771 13.9507L45.0272 13.7036ZM44.8339 12.9604L45.7841 12.7133L45.784 12.7133L44.8339 12.9604ZM44.7929 12.8447L43.8994 13.2515L43.8994 13.2515L44.7929 12.8447ZM44.6369 12.5021L45.5304 12.0953L45.5304 12.0953L44.6369 12.5021ZM44.6062 19.2636L45.5022 19.6647L44.6062 19.2636ZM44.794 18.8441L43.898 18.443L43.8979 18.443L44.794 18.8441ZM44.8335 18.7316L45.7836 18.9787L45.7836 18.9787L44.8335 18.7316ZM45.0272 17.9867L44.0771 17.7396V17.7396L45.0272 17.9867ZM38.1818 25.1247C38.724 25.1247 39.1636 24.6851 39.1636 24.1429C39.1636 23.6007 38.724 23.1612 38.1818 23.1612V25.1247ZM33.9276 23.1612C33.3854 23.1612 32.9459 23.6007 32.9459 24.1429C32.9459 24.6851 33.3854 25.1247 33.9276 25.1247V23.1612ZM41.6278 8.83386C42.1119 9.68789 42.1118 9.68797 42.1117 9.68804C42.1117 9.68805 42.1116 9.6881 42.1115 9.68812C42.1115 9.68815 42.1115 9.68813 42.1116 9.68807C42.1118 9.68794 42.1124 9.68763 42.1133 9.68715C42.115 9.68617 42.118 9.68448 42.1223 9.68209C42.1308 9.67732 42.1444 9.66978 42.1627 9.65967C42.1995 9.63943 42.2555 9.60894 42.3291 9.56976C42.4763 9.49138 42.6937 9.37847 42.968 9.24372C43.5175 8.97376 44.2908 8.61858 45.184 8.2782C47.0075 7.58328 49.1833 7.00836 50.9592 7.21399L51.185 5.26357C48.9194 5.00124 46.3731 5.72386 44.4848 6.44347C43.522 6.81036 42.692 7.1917 42.1022 7.48143C41.8069 7.62653 41.5705 7.74926 41.4065 7.83656C41.3245 7.88023 41.2605 7.91508 41.2161 7.93949C41.1939 7.9517 41.1766 7.9613 41.1645 7.96809C41.1584 7.97148 41.1536 7.97418 41.1501 7.97614C41.1484 7.97713 41.147 7.97793 41.1459 7.97855C41.1453 7.97885 41.1449 7.97912 41.1445 7.97933C41.1443 7.97944 41.1441 7.97957 41.144 7.97962C41.1438 7.97973 41.1436 7.97984 41.6278 8.83386ZM50.9592 7.21399C52.8171 7.42912 53.9602 7.99448 54.7344 8.605C55.5313 9.23339 55.9901 9.9417 56.4827 10.6358L58.0839 9.49941C57.6405 8.87468 57.0145 7.90257 55.9502 7.06324C54.8632 6.20605 53.3686 5.5164 51.185 5.26357L50.9592 7.21399ZM56.4827 10.6358C56.9898 11.3503 57.3509 11.7541 58.0382 12.1215C58.3309 12.2779 58.682 12.4281 59.092 12.6039C59.5145 12.7851 60.0433 13.0114 60.7424 13.3348L61.5669 11.5529C60.8407 11.2169 60.29 10.9813 59.8657 10.7994C59.4289 10.612 59.1658 10.4979 58.9638 10.3899C58.662 10.2286 58.5127 10.1036 58.0839 9.49941L56.4827 10.6358ZM60.7424 13.3348C62.0761 13.9519 63.038 15.1601 63.6453 16.183L65.3336 15.1807C64.642 14.0157 63.4254 12.4128 61.5669 11.5529L60.7424 13.3348ZM63.8301 15.8088C62.7727 15.5497 61.3364 15.2487 60.0377 15.1564C59.3914 15.1105 58.7309 15.1124 58.1482 15.2185C57.5927 15.3196 56.9281 15.5477 56.501 16.111L58.0656 17.2973C58.0493 17.3187 58.1194 17.2194 58.4997 17.1502C58.8529 17.0859 59.3293 17.0745 59.8986 17.115C61.0312 17.1954 62.3406 17.4654 63.3627 17.7158L63.8301 15.8088ZM56.501 16.111C55.9068 16.8947 53.6666 19.8022 50.9863 22.8843C48.2772 25.9996 45.2186 29.1745 42.9747 30.5941L44.0245 32.2534C46.5453 30.6586 49.7771 27.267 52.4679 24.1727C55.1876 21.0453 57.4568 18.1001 58.0656 17.2973L56.501 16.111ZM42.9747 30.5941C40.6647 32.0556 38.8797 32.7617 37.1848 33.0169C35.4845 33.2729 33.79 33.0888 31.6196 32.6326L31.2157 34.5541C33.4697 35.0278 35.4338 35.2661 37.4772 34.9584C39.5261 34.6499 41.5698 33.8063 44.0245 32.2534L42.9747 30.5941ZM31.6196 32.6326C29.8564 32.2621 27.8341 31.2189 26.0643 30.1051C24.3143 29.0038 22.8989 27.8901 22.3641 27.4559L21.1266 28.9803C21.6947 29.4415 23.1772 30.6081 25.0185 31.7669C26.84 32.9132 29.1024 34.11 31.2157 34.5541L31.6196 32.6326ZM21.1937 27.0386H17.5064V29.0021H21.1937V27.0386ZM22.3641 27.4559C22.0381 27.1913 21.6268 27.0386 21.1937 27.0386V29.0021C21.163 29.0021 21.1401 28.9913 21.1266 28.9803L22.3641 27.4559ZM63.6453 16.183C63.6337 16.1635 63.6124 16.1095 63.6196 16.0346C63.6263 15.9647 63.6545 15.9105 63.684 15.8758C63.7431 15.8061 63.8113 15.8042 63.8301 15.8088L63.3627 17.7158C64.0627 17.8874 64.7565 17.6468 65.1813 17.1459C65.6226 16.6257 65.7364 15.8591 65.3336 15.1807L63.6453 16.183ZM18.8252 19.4175H8.5725V21.3809H18.8252V19.4175ZM36.0547 11.4196L19.0379 11.4196V13.383L36.0547 13.383V11.4196ZM39.2029 15.844L22.186 15.844V17.8074L39.2029 17.8074L39.2029 15.844ZM21.3758 16.1199L18.4837 19.2814L19.9324 20.6067L22.8245 17.4452L21.3758 16.1199ZM17.6307 12.4013C17.6307 13.6448 16.6227 14.6528 15.3792 14.6528V16.6162C17.7071 16.6162 19.5942 14.7291 19.5942 12.4013H17.6307ZM15.3792 14.6528C14.1358 14.6528 13.1278 13.6448 13.1278 12.4013H11.1643C11.1643 14.7291 13.0514 16.6162 15.3792 16.6162V14.6528ZM13.1278 12.4013C13.1278 11.1578 14.1358 10.1498 15.3792 10.1498V8.18637C13.0514 8.18637 11.1643 10.0735 11.1643 12.4013H13.1278ZM15.3792 10.1498C16.6227 10.1498 17.6307 11.1578 17.6307 12.4013H19.5942C19.5942 10.0735 17.7071 8.18637 15.3792 8.18637V10.1498ZM32.6906 24.1429C32.6906 25.3864 31.6826 26.3944 30.4392 26.3944V28.3579C32.767 28.3579 34.6541 26.4708 34.6541 24.1429H32.6906ZM30.4392 26.3944C29.1957 26.3944 28.1877 25.3864 28.1877 24.1429H26.2242C26.2242 26.4708 28.1113 28.3579 30.4392 28.3579V26.3944ZM28.1877 24.1429C28.1877 22.8995 29.1957 21.8915 30.4392 21.8915V19.928C28.1113 19.928 26.2242 21.8151 26.2242 24.1429H28.1877ZM30.4392 21.8915C31.6826 21.8915 32.6906 22.8995 32.6906 24.1429H34.6541C34.6541 21.8151 32.767 19.928 30.4392 19.928V21.8915ZM6.48468 20.2291C6.48468 21.4725 5.47666 22.4805 4.2332 22.4805V24.444C6.56105 24.444 8.44813 22.5569 8.44813 20.2291H6.48468ZM4.2332 22.4805C2.98975 22.4805 1.98173 21.4725 1.98173 20.2291H0.0182741C0.0182741 22.5569 1.90536 24.444 4.2332 24.444V22.4805ZM1.98173 20.2291C1.98173 18.9856 2.98975 17.9776 4.2332 17.9776V16.0141C1.90536 16.0141 0.0182741 17.9012 0.0182741 20.2291H1.98173ZM4.2332 17.9776C5.47666 17.9776 6.48468 18.9856 6.48468 20.2291H8.44813C8.44813 17.9012 6.56105 16.0141 4.2332 16.0141V17.9776ZM16.6948 28.227C16.6948 29.4704 15.6868 30.4785 14.4433 30.4785V32.4419C16.7712 32.4419 18.6583 30.5548 18.6583 28.227H16.6948ZM14.4433 30.4785C13.1999 30.4785 12.1918 29.4704 12.1918 28.227H10.2284C10.2284 30.5548 12.1155 32.4419 14.4433 32.4419V30.4785ZM12.1918 28.227C12.1918 26.9835 13.1999 25.9755 14.4433 25.9755V24.0121C12.1155 24.0121 10.2284 25.8991 10.2284 28.227H12.1918ZM14.4433 25.9755C15.6868 25.9755 16.6948 26.9835 16.6948 28.227H18.6583C18.6583 25.8991 16.7712 24.0121 14.4433 24.0121V25.9755ZM23.9302 3.25148L11.1676 3.25148V5.21493L23.9302 5.21493V3.25148ZM43.0564 8.31896C41.1687 7.22363 39.4629 6.80514 37.0835 6.68457C34.7751 6.56761 31.7201 6.72959 27.1853 6.82522L27.2267 8.78823C31.8683 8.69035 34.7693 8.53328 36.9841 8.64551C39.128 8.75413 40.5128 9.11308 42.071 10.0172L43.0564 8.31896ZM27.9296 7.18718L25.0374 4.02576L23.5887 5.35106L26.4809 8.51248L27.9296 7.18718ZM45.9773 13.4565L45.7841 12.7133L43.8838 13.2075L44.0771 13.9507L45.9773 13.4565ZM45.6864 12.4379L45.5304 12.0953L43.7434 12.9088L43.8994 13.2515L45.6864 12.4379ZM45.5022 19.6647L45.69 19.2453L43.8979 18.443L43.7102 18.8624L45.5022 19.6647ZM45.7836 18.9787L45.9773 18.2338L44.0771 17.7396L43.8834 18.4845L45.7836 18.9787ZM45.784 12.7133C45.7595 12.6188 45.7268 12.5267 45.6864 12.4379L43.8994 13.2515C43.893 13.2373 43.8877 13.2226 43.8838 13.2075L45.784 12.7133ZM44.0771 13.9507C44.4002 15.193 44.4002 16.4973 44.0771 17.7396L45.9773 18.2338C46.3847 16.6674 46.3847 15.0229 45.9773 13.4565L44.0771 13.9507ZM37.0757 8.6183C39.9471 8.6183 42.5537 10.2956 43.7434 12.9088L45.5304 12.0953C44.0218 8.7817 40.7166 6.65485 37.0757 6.65485V8.6183ZM45.69 19.2453C45.7285 19.1592 45.7598 19.07 45.7836 18.9787L43.8834 18.4845C43.8871 18.4703 43.8919 18.4564 43.898 18.443L45.69 19.2453ZM37.0757 25.1247C40.7152 25.1247 44.0151 22.9865 45.5022 19.6647L43.7102 18.8624C42.5393 21.4778 39.9412 23.1612 37.0757 23.1612V25.1247ZM38.1818 23.1612H33.9276V25.1247H38.1818V23.1612ZM9.46263 4.2332C9.46263 5.47666 8.45461 6.48468 7.21115 6.48468V8.44813C9.539 8.44813 11.4261 6.56105 11.4261 4.2332H9.46263ZM7.21115 6.48468C5.9677 6.48468 4.95968 5.47666 4.95968 4.2332H2.99622C2.99622 6.56105 4.88331 8.44813 7.21115 8.44813V6.48468ZM4.95968 4.2332C4.95968 2.98975 5.9677 1.98173 7.21115 1.98173V0.0182741C4.88331 0.0182741 2.99622 1.90536 2.99622 4.2332H4.95968ZM7.21115 1.98173C8.45461 1.98173 9.46263 2.98975 9.46263 4.2332H11.4261C11.4261 1.90536 9.539 0.0182741 7.21115 0.0182741V1.98173Z" fill="url(#paint0_linear_3_325)"/>
<defs>
<linearGradient id="paint0_linear_3_325" x1="3.38236" y1="16.3152" x2="34.8636" y2="15.8898" gradientUnits="userSpaceOnUse">
<stop stop-color="#8DD7FF"/>
<stop offset="1" stop-color="#FFC701"/>
</linearGradient>
</defs>
</svg>
